Coordinates
version=1
nRows=16
nColumns=22
inDegrees=yes

Units are S.I. units (second, meters, Newtons, ...)
If the header above contains a line with 'inDegrees', this indicates whether rotational values are in degrees (yes) or radians (no).

endheader
time	pelvis_tilt	pelvis_list	pelvis_rotation	pelvis_tx	pelvis_ty	pelvis_tz	hip_flexion_r	hip_adduction_r	hip_rotation_r	knee_angle_r	ankle_angle_r	subtalar_angle_r	hip_flexion_l	hip_adduction_l	hip_rotation_l	knee_angle_l	ankle_angle_l	subtalar_angle_l	lumbar_extension	lumbar_bending	lumbar_rotation
      1.32000000	     -3.39306478	     -3.82647752	     -3.81466235	      1.11367268	      0.94260608	     -0.26680537	      9.45895657	      5.28856876	     -0.41023947	    -18.72015588	     11.41696024	     -4.53711432	      9.86936241	     -6.79459540	     -7.32827068	    -22.39840192	     13.05921934	     -2.54375110	     -4.16582583	      2.03424606	     -0.23167281
      1.33000000	     -3.39391770	     -3.83225324	     -3.89185182	      1.11310711	      0.94261836	     -0.26611457	      9.55289022	      5.34915937	     -0.36373230	    -18.81704471	     11.38338182	     -4.56281762	      9.94500440	     -6.86174552	     -7.36665475	    -22.48863122	     13.04033225	     -2.41756583	     -4.20348221	      2.03721557	     -0.19716460
      1.34000000	     -3.39581572	     -3.83917733	     -3.97631199	      1.11249179	      0.94262108	     -0.26538177	      9.65767299	      5.41604136	     -0.30868984	    -18.92637016	     11.34849836	     -4.59595640	     10.03465702	     -6.93425269	     -7.40132721	    -22.59815937	     13.03015109	     -2.27191022	     -4.24703724	      2.04064652	     -0.15340799
      1.35000000	     -3.39419547	     -3.84574891	     -4.06370895	      1.11181543	      0.94261835	     -0.26462016	      9.77052318	      5.48584012	     -0.25400346	    -19.04885852	     11.31440898	     -4.63433360	     10.13363731	     -7.00746249	     -7.42486332	    -22.72519500	     13.02402988	     -2.12769091	     -4.30410454	      2.04444422	     -0.10323109
      1.36000000	     -3.41624551	     -3.84406902	     -4.15639226	      1.11105377	      0.94256356	     -0.26380953	      9.92014381	      5.55649845	     -0.17264370	    -19.18149018	     11.27030230	     -4.70021014	     10.28399524	     -7.07899166	     -7.44418887	    -22.88993193	     13.05600405	     -1.92914878	     -4.34329801	      2.03810070	     -0.05472024
      1.37000000	     -3.40110630	     -3.85957431	     -4.25350610	      1.11026329	      0.94256404	     -0.26297637	     10.04445975	      5.63829758	     -0.15538955	    -19.33571072	     11.24237887	     -4.73807306	     10.38626257	     -7.16462821	     -7.45490631	    -23.03821260	     13.02435344	     -1.82844842	     -4.43526720	      2.05383801	      0.02202609
      1.38000000	     -3.44343381	     -3.86070116	     -4.36322184	      1.10933626	      0.94245059	     -0.26206692	     10.24829498	      5.72399963	     -0.06556393	    -19.50581819	     11.19161289	     -4.81374700	     10.59356859	     -7.25038114	     -7.47102487	    -23.25307203	     13.05555686	     -1.65642748	     -4.47509550	      2.05229153	      0.10474937
      1.39000000	     -3.46772578	     -3.86918789	     -4.47245127	      1.10835250	      0.94235904	     -0.26113666	     10.44996781	      5.81418426	     -0.01999544	    -19.69925909	     11.15016956	     -4.88499779	     10.78187084	     -7.34194981	     -7.47827858	    -23.46140212	     13.05383131	     -1.52083005	     -4.54735409	      2.06268713	      0.19728438
      1.40000000	     -3.49995060	     -3.87619191	     -4.58579735	      1.10728656	      0.94224781	     -0.26016438	     10.67099926	      5.90851494	      0.02874423	    -19.90279662	     11.10734751	     -4.95795164	     10.98813962	     -7.43445457	     -7.47980289	    -23.67859749	     13.04589312	     -1.40161664	     -4.62249802	      2.07322602	      0.30497309
      1.41000000	     -3.54607528	     -3.88304122	     -4.69712403	      1.10612593	      0.94210761	     -0.25915347	     10.92133372	      6.00781920	      0.07634714	    -20.12120735	     11.06386555	     -5.04756140	     11.21841210	     -7.52853510	     -7.46064024	    -23.90063348	     13.03135607	     -1.28144509	     -4.69441082	      2.08627705	      0.41882350
      1.42000000	     -3.58749165	     -3.88933558	     -4.80412774	      1.10489637	      0.94197580	     -0.25811064	     11.16436912	      6.10830630	      0.11664485	    -20.32703480	     11.01310925	     -5.13627683	     11.45257004	     -7.62479803	     -7.44495152	    -24.12913793	     12.99672800	     -1.18534998	     -4.78347636	      2.10038823	      0.54426684
      1.43000000	     -3.61745858	     -3.89687325	     -4.90270039	      1.10361630	      0.94187010	     -0.25703392	     11.38470675	      6.20991366	      0.14304004	    -20.50792081	     10.95284929	     -5.20903637	     11.67847758	     -7.72567400	     -7.43879239	    -24.35598589	     12.92659639	     -1.11386052	     -4.89508550	      2.11472170	      0.68353670
      1.44000000	     -3.66085748	     -3.89856143	     -4.98297560	      1.10225370	      0.94174467	     -0.25593427	     11.62415827	      6.30963793	      0.17473916	    -20.68971306	     10.89557587	     -5.29961323	     11.92177695	     -7.81705703	     -7.39421323	    -24.56999186	     12.84762278	     -1.04110130	     -5.00212901	      2.12441679	      0.81105348
      1.45000000	     -3.70965287	     -3.89335188	     -5.04170089	      1.10082322	      0.94161548	     -0.25483276	     11.86887357	      6.40154165	      0.19659041	    -20.86312804	     10.84036065	     -5.41010776	     12.17085490	     -7.89636728	     -7.32050340	    -24.76611441	     12.75667666	     -0.97221455	     -5.11357684	      2.13053728	      0.92514909
      1.46000000	     -3.74282113	     -3.87503173	     -5.07871658	      1.09933944	      0.94152876	     -0.25373596	     12.07866943	      6.47295710	      0.19843937	    -20.99348216	     10.77177125	     -5.48780702	     12.40979734	     -7.96196225	     -7.25234863	    -24.95573236	     12.60426546	     -0.91477605	     -5.25324737	      2.12294584	      1.03999425
      1.47000000	     -3.79156221	     -3.83661819	     -5.08711230	      1.09775674	      0.94142487	     -0.25266006	     12.31267377	      6.52135582	      0.18998426	    -21.12419612	     10.71052454	     -5.56252088	     12.67184512	     -8.00112228	     -7.15675402	    -25.12783603	     12.43468024	     -0.86164553	     -5.38954680	      2.09760084	      1.13329398
